<svg width="200" height="200" viewBox="0 0 200 200" fill="none" xmlns="http://www.w3.org/2000/svg">
<rect width="200" height="200" rx="20" fill="white"/>
<path d="M55.2169 104.401V137H42.1047V62.8182H54.9272V90.8175H55.5791C56.8831 87.6783 58.8995 85.2031 61.6282 83.392C64.381 81.5568 67.8824 80.6392 72.1324 80.6392C75.9961 80.6392 79.3647 81.4482 82.2382 83.066C85.1118 84.6839 87.3334 87.0504 88.903 90.1655C90.4968 93.2805 91.2936 97.0838 91.2936 101.575V137H78.1814V103.604C78.1814 99.8608 77.2155 96.951 75.2837 94.8743C73.376 92.7734 70.6956 91.723 67.2425 91.723C64.9243 91.723 62.8476 92.2301 61.0124 93.2443C59.2013 94.2344 57.7766 95.6712 56.7382 97.5547C55.724 99.4382 55.2169 101.72 55.2169 104.401ZM127.809 138.123C124.284 138.123 121.108 137.495 118.283 136.239C115.482 134.96 113.26 133.076 111.618 130.589C110 128.102 109.191 125.035 109.191 121.388C109.191 118.249 109.771 115.653 110.93 113.601C112.089 111.548 113.671 109.906 115.675 108.675C117.679 107.443 119.937 106.513 122.449 105.886C124.984 105.234 127.604 104.763 130.309 104.473C133.569 104.135 136.213 103.833 138.241 103.567C140.27 103.278 141.743 102.843 142.66 102.263C143.602 101.66 144.073 100.73 144.073 99.4744V99.2571C144.073 96.5284 143.264 94.4155 141.646 92.9183C140.028 91.4212 137.698 90.6726 134.655 90.6726C131.444 90.6726 128.896 91.3729 127.012 92.7734C125.153 94.174 123.897 95.8281 123.245 97.7358L111.003 95.9972C111.968 92.6165 113.562 89.7912 115.784 87.5213C118.005 85.2273 120.722 83.5128 123.934 82.3778C127.145 81.2188 130.695 80.6392 134.583 80.6392C137.263 80.6392 139.932 80.9531 142.588 81.581C145.244 82.2088 147.671 83.2472 149.868 84.696C152.066 86.1207 153.829 88.0646 155.157 90.5277C156.509 92.9908 157.185 96.0696 157.185 99.7642V137H144.58V129.357H144.145C143.348 130.903 142.226 132.352 140.777 133.704C139.352 135.032 137.553 136.107 135.38 136.928C133.231 137.724 130.707 138.123 127.809 138.123ZM131.214 128.488C133.846 128.488 136.128 127.969 138.06 126.93C139.992 125.868 141.477 124.467 142.515 122.729C143.578 120.99 144.109 119.094 144.109 117.042V110.486C143.699 110.824 142.998 111.138 142.008 111.428C141.042 111.717 139.956 111.971 138.748 112.188C137.541 112.406 136.346 112.599 135.162 112.768C133.979 112.937 132.953 113.082 132.084 113.202C130.128 113.468 128.377 113.903 126.831 114.506C125.286 115.11 124.066 115.955 123.173 117.042C122.28 118.104 121.833 119.481 121.833 121.171C121.833 123.586 122.714 125.409 124.477 126.641C126.24 127.872 128.485 128.488 131.214 128.488Z" fill="black"/>
</svg>
